<svg xmlns="http://www.w3.org/2000/svg" width="452" height="8" fill="none"><path fill="url(#a)" d="M304.235 1.963c.17.188.03.347-.449.381-1.2.084-2.413.16-3.631.177-2.65.033-5.305.025-7.742.033-.649.19-.576.314.024.36.6.046 1.219.056 1.831.056 22.753.04 45.512.069 68.266.124 2.449.006 4.898.13 7.335.249 2.862.139 5.705.215 8.573.006 1.2-.087 2.455-.18 3.656-.134 10.834.42 21.692.337 32.544.353 1.207.003 2.413.1 3.613.17.091.006.207.134.2.201-.006.07-.103.179-.236.198-.746.113-1.522.306-2.268.289-2.249-.052-4.468-.14-6.681.154-.739.099-1.625.026-2.443.023-6.148-.007-12.295-.021-18.443-.021-9.021-.002-18.036.007-27.057.008-3.074.001-6.136.034-9.198.202-2.225.122-4.492.133-6.741.14-15.988.044-31.981.064-47.968.11-4.911.016-9.816.033-14.733.224-4.874.192-9.815.141-14.726.15-23.372.026-46.743.024-70.109.056-9.84.013-19.679.106-29.519.114-10.252.005-20.498-.061-30.75-.073-14.35-.015-28.701-.018-43.051-.002-2.656.003-5.311.116-7.973.182-2.043.05-4.086.136-6.129.155-4.71.044-9.428.05-14.144.086-2.256.018-4.535-.009-6.754.12-5.293.312-10.622.325-15.945.39-2.456.03-4.899.14-7.354.217-6.33.2-12.593.642-18.946.76-1.631.03-3.25.187-4.88.22a417.32 417.32 0 0 1-9.204.11c-1.764 0-2.946-.554-3.025-1.29A52.253 52.253 0 0 1 .003 4.27c-.024-.367.504-.642 1.25-.78 1.103-.2 2.267-.387 3.455-.461 1.613-.101 3.268-.079 4.905-.134 2.856-.093 5.711-.198 8.567-.308 1.018-.038 2.03-.12 3.05-.148 7.766-.217 15.508-.535 23.238-.882 2.843-.126 5.73-.101 8.597-.134 5.323-.058 10.658-.02 15.945-.37 1.606-.106 3.268-.076 4.91-.097C80.675.877 87.429.87 94.183.612c5.7-.217 11.471-.186 17.206-.184 21.323.006 42.639.054 63.961.07 25.827.02 51.66.032 77.487.037 8.403.001 16.812-.02 25.215-.055 2.456-.011 4.905-.107 7.36-.159 1.019-.021 2.043-.062 3.062-.04 2.655.054 5.311.19 7.96.194 2.437.003 4.875-.128 7.312-.19.145-.005.455.104.43.138-.079.132-.182.337-.406.369a19.21 19.21 0 0 1-2.371.206c-2.455.04-4.916.032-7.378.068-.8.011-1.619.071-2.383.165-.224.027-.339.244-.406.384-.024.048.224.162.382.176.788.068 1.649.21 2.382.148 3.45-.288 6.851-.147 10.24.024Zm-21.358-.224c-.152-.043-.304-.123-.455-.125-3.462-.028-6.924-.051-10.391-.06-.776-.003-1.559.055-2.407.089.509.473 1.442.362 2.17.377 1.667.03 3.225.066 4.298.709.23.138 1.206.198 1.673.126 1.704-.26 3.341-.588 4.984-.9.103-.022.085-.143.128-.216Zm-33.612-.083c-.485 0-.885-.01-1.285.005-.182.007-.461.038-.516.089-.163.152.091.239.625.275.594.039 1.176.11 1.764.15.509.037.819-.05.806-.231-.006-.063-.175-.152-.321-.176-.376-.056-.77-.083-1.073-.112Z"/><path fill="url(#b)" d="M334.658.133c5.117.002 10.234.002 15.351.008 2.049.004 4.111-.008 6.02.35.297.056.449.24.667.363-.17.043-.34.125-.515.127-3.474.038-6.948.09-10.428.093-9.009.008-18.013 0-27.022-.016-1.206-.002-2.419-.083-3.625-.143-.164-.008-.455-.114-.43-.15.078-.143.2-.374.424-.398.964-.109 1.971-.212 2.965-.214 5.529-.017 11.052-.005 16.581-.003.012-.007.012-.012.012-.017Z"/><path fill="url(#c)" d="M438.092 3.855c.315.087.758.148.904.266.145.118.121.333-.073.437-.637.345-1.565.441-2.619.27-.255-.042-.54-.274-.467-.38.297-.415 1.146-.615 2.255-.593Z"/><path fill="url(#d)" d="M450.211 4.5c-.454-.037-1.036-.066-1.582-.136-.442-.058-.564-.208-.333-.35.085-.053.327-.1.485-.094.576.017 1.158.046 1.722.092.915.075 1.454.31.939.377-.358.048-.74.068-1.231.11Z"/><path fill="url(#e)" d="M365.754.384c.576-.021 1.091-.08 1.564-.043.2.015.521.264.43.334-.297.226-.903.25-1.412.13-.249-.061-.334-.232-.582-.42Z"/><path fill="url(#f)" d="M429.404 4.55c-.212-.129-.515-.245-.606-.385-.079-.12-.03-.301.158-.393.315-.154 1.267-.082 1.479.121.121.111.054.302-.127.399-.207.11-.631.161-.959.236l.055.021Z"/><path fill="url(#g)" d="M328.395 1.924a1.23 1.23 0 0 1 .97-.072c.109.036.176.157.103.203-.242.161-.612.19-.952.077-.109-.037-.085-.138-.121-.208Z"/><path fill="url(#h)" d="M438.124 1.011c-.182-.012-.473-.002-.534-.043-.236-.167-.03-.259.522-.22.157.01.285.085.424.128-.139.044-.273.09-.412.135Z"/><path fill="url(#i)" d="m409.199.913-.382-.053.309-.082.073.135Z"/><path fill="url(#j)" d="m444.732.973-.218-.138.443.003-.225.135Z"/><path fill="url(#k)" d="m348.572 1.802.394-.048-.055.13-.339-.082Z"/><defs><linearGradient id="a" x1="-971.878" x2="-957.816" y1="-10.442" y2="181.107" gradientUnits="userSpaceOnUse"><stop stop-color="#FF3DA4"/><stop offset="1" stop-color="#217AF2"/></linearGradient><linearGradient id="b" x1="-971.878" x2="-957.816" y1="-10.442" y2="181.107" gradientUnits="userSpaceOnUse"><stop stop-color="#FF3DA4"/><stop offset="1" stop-color="#217AF2"/></linearGradient><linearGradient id="c" x1="-971.878" x2="-957.816" y1="-10.442" y2="181.107" gradientUnits="userSpaceOnUse"><stop stop-color="#FF3DA4"/><stop offset="1" stop-color="#217AF2"/></linearGradient><linearGradient id="d" x1="-971.878" x2="-957.816" y1="-10.442" y2="181.107" gradientUnits="userSpaceOnUse"><stop stop-color="#FF3DA4"/><stop offset="1" stop-color="#217AF2"/></linearGradient><linearGradient id="e" x1="-971.878" x2="-957.816" y1="-10.442" y2="181.107" gradientUnits="userSpaceOnUse"><stop stop-color="#FF3DA4"/><stop offset="1" stop-color="#217AF2"/></linearGradient><linearGradient id="f" x1="-971.878" x2="-957.816" y1="-10.442" y2="181.107" gradientUnits="userSpaceOnUse"><stop stop-color="#FF3DA4"/><stop offset="1" stop-color="#217AF2"/></linearGradient><linearGradient id="g" x1="-971.878" x2="-957.816" y1="-10.442" y2="181.107" gradientUnits="userSpaceOnUse"><stop stop-color="#FF3DA4"/><stop offset="1" stop-color="#217AF2"/></linearGradient><linearGradient id="h" x1="-971.878" x2="-957.816" y1="-10.442" y2="181.107" gradientUnits="userSpaceOnUse"><stop stop-color="#FF3DA4"/><stop offset="1" stop-color="#217AF2"/></linearGradient><linearGradient id="i" x1="-971.878" x2="-957.816" y1="-10.442" y2="181.107" gradientUnits="userSpaceOnUse"><stop stop-color="#FF3DA4"/><stop offset="1" stop-color="#217AF2"/></linearGradient><linearGradient id="j" x1="-971.878" x2="-957.816" y1="-10.442" y2="181.107" gradientUnits="userSpaceOnUse"><stop stop-color="#FF3DA4"/><stop offset="1" stop-color="#217AF2"/></linearGradient><linearGradient id="k" x1="-971.878" x2="-957.816" y1="-10.442" y2="181.107" gradientUnits="userSpaceOnUse"><stop stop-color="#FF3DA4"/><stop offset="1" stop-color="#217AF2"/></linearGradient></defs></svg>