<svg xmlns="http://www.w3.org/2000/svg" width="126" height="34" fill="none"><g clip-path="url(#a)"><path fill="url(#b)" d="M.601 27.45c.481-1.163 4.006-5.319 4.006-5.319s.137-4.076 2.273-5.729c0 0-.207 1.512-.104 1.754 0 0 1.293-5.96 8.269-9.988 0 0-.951 2.174-.996 2.59 0 0 4.36-5.302 10.225-5.521A1.832 1.832 0 0 0 23.37 5H1.781C.798 5 0 5.761 0 6.7v20.6c0 .401.147.77.391 1.06a2.7 2.7 0 0 1 .21-.912v.001Z"/><path fill="url(#c)" d="M25.875 8.132c-.822 1.184-2.79 3.669-5.322 4.364-2.533.694-3.49.998-3.49.998s1.707-.002 4.581-.657c0 0-3.329 5.554-9.396 5.3 0 0-.564.485 4.685-.25 0 0-2.902 3.312-6.174 3.914-3.27.603-3.671.576-4.334 1.015 0 0 5.782-8.882 12.874-12.9 0 0-7.454 1.905-15.99 16.431l-.84 1.497s-.765.206-1.444.992c.23.104.485.163.756.163h21.586c.984 0 1.78-.762 1.78-1.7V11.35S27.796 9.313 28 5.816c0 0-1.304 1.133-2.126 2.316h.002Z"/></g><path fill="#050505" d="M37.832 26.5V11.932H32.24V9.22h14.076v2.712h-5.592V26.5h-2.892Zm14.373.36c-1.312 0-2.464-.284-3.456-.852a6.067 6.067 0 0 1-2.328-2.364c-.552-1.008-.828-2.168-.828-3.48 0-1.416.272-2.644.816-3.684.544-1.048 1.3-1.86 2.268-2.436.968-.576 2.088-.864 3.36-.864 1.344 0 2.484.316 3.42.948.944.624 1.644 1.508 2.1 2.652.456 1.144.628 2.492.516 4.044h-2.868v-1.056c-.008-1.408-.256-2.436-.744-3.084-.488-.648-1.256-.972-2.304-.972-1.184 0-2.064.368-2.64 1.104-.576.728-.864 1.796-.864 3.204 0 1.312.288 2.328.864 3.048.576.72 1.416 1.08 2.52 1.08.712 0 1.324-.156 1.836-.468.52-.32.92-.78 1.2-1.38l2.856.864c-.496 1.168-1.264 2.076-2.304 2.724a6.303 6.303 0 0 1-3.42.972Zm-4.464-6.036V18.64h8.916v2.184H47.74Zm11.1 5.676 4.74-6.552-4.643-6.408h3.408l2.916 4.14 2.868-4.14h3.408l-4.644 6.408 4.764 6.552H68.25l-2.988-4.284L62.25 26.5h-3.408Zm22.326 0c-.856.16-1.696.228-2.52.204-.816-.016-1.548-.164-2.196-.444a3.043 3.043 0 0 1-1.476-1.356 3.865 3.865 0 0 1-.468-1.716 73.019 73.019 0 0 1-.024-1.98V9.94h2.88v11.1c0 .52.004.976.012 1.368.016.392.1.712.252.96.288.48.748.748 1.38.804.632.056 1.352.024 2.16-.096V26.5ZM72.13 15.808V13.54h9.036v2.268H72.13ZM89.02 26.86c-1.296 0-2.428-.292-3.396-.876a6.017 6.017 0 0 1-2.256-2.412c-.528-1.032-.792-2.216-.792-3.552 0-1.36.272-2.552.816-3.576a6.017 6.017 0 0 1 2.268-2.4c.968-.576 2.088-.864 3.36-.864 1.304 0 2.44.292 3.408.876a5.998 5.998 0 0 1 2.256 2.424c.536 1.024.804 2.204.804 3.54 0 1.344-.272 2.532-.816 3.564a6.017 6.017 0 0 1-2.256 2.412c-.968.576-2.1.864-3.396.864Zm0-2.712c1.152 0 2.008-.384 2.568-1.152.56-.768.84-1.76.84-2.976 0-1.256-.284-2.256-.852-3-.568-.752-1.42-1.128-2.556-1.128-.776 0-1.416.176-1.92.528-.496.344-.864.828-1.104 1.452-.24.616-.36 1.332-.36 2.148 0 1.256.284 2.26.852 3.012.576.744 1.42 1.116 2.532 1.116Zm9.112 2.352V13.54h2.556v3.156l-.312-.408c.16-.432.372-.824.636-1.176a3.54 3.54 0 0 1 .972-.888c.32-.216.672-.384 1.056-.504a4.749 4.749 0 0 1 1.2-.228 4.88 4.88 0 0 1 1.188.048v2.7c-.384-.112-.828-.148-1.332-.108a3.05 3.05 0 0 0-1.344.42c-.4.216-.728.492-.984.828-.248.336-.432.72-.552 1.152-.12.424-.18.884-.18 1.38V26.5h-2.904Zm12.905.36c-.936 0-1.728-.176-2.376-.528-.648-.36-1.14-.836-1.476-1.428a3.968 3.968 0 0 1-.492-1.956c0-.624.104-1.184.312-1.68.208-.504.528-.936.96-1.296.432-.368.992-.668 1.68-.9.52-.168 1.128-.32 1.824-.456.704-.136 1.464-.26 2.28-.372.824-.12 1.684-.248 2.58-.384l-1.032.588c.008-.896-.192-1.556-.6-1.98-.408-.424-1.096-.636-2.064-.636-.584 0-1.148.136-1.692.408-.544.272-.924.74-1.14 1.404l-2.64-.828c.32-1.096.928-1.976 1.824-2.64.904-.664 2.12-.996 3.648-.996 1.152 0 2.164.188 3.036.564a3.77 3.77 0 0 1 1.956 1.848c.232.456.372.924.42 1.404.048.472.072.988.072 1.548V26.5h-2.532v-2.808l.42.456c-.584.936-1.268 1.624-2.052 2.064-.776.432-1.748.648-2.916.648Zm.576-2.304c.656 0 1.216-.116 1.68-.348.464-.232.832-.516 1.104-.852.28-.336.468-.652.564-.948.152-.368.236-.788.252-1.26.024-.48.036-.868.036-1.164l.888.264c-.872.136-1.62.256-2.244.36-.624.104-1.16.204-1.608.3-.448.088-.844.188-1.188.3-.336.12-.62.26-.852.42a1.86 1.86 0 0 0-.54.552 1.44 1.44 0 0 0-.18.732c0 .32.08.604.24.852.16.24.392.432.696.576.312.144.696.216 1.152.216Z"/><defs><linearGradient id="b" x1="-52.236" x2="80.265" y1="-25.317" y2="6.691" gradientUnits="userSpaceOnUse"><stop stop-color="#FF3DA4"/><stop offset="1" stop-color="#217AF2"/></linearGradient><linearGradient id="c" x1="-57.019" x2="88.183" y1="-24.27" y2="15.005" gradientUnits="userSpaceOnUse"><stop stop-color="#FF3DA4"/><stop offset="1" stop-color="#217AF2"/></linearGradient><clipPath id="a"><path fill="#fff" d="M0 5h28v24H0z"/></clipPath></defs></svg>